<?xml version="1.0" standalone="no"?><!DOCTYPE svg PUBLIC "-//W3C//DTD SVG 1.1//EN" "http://www.w3.org/Graphics/SVG/1.1/DTD/svg11.dtd"><svg t="1692147897784" class="icon" viewBox="0 0 1024 1024" version="1.1" xmlns="http://www.w3.org/2000/svg" p-id="13441" xmlns:xlink="http://www.w3.org/1999/xlink" width="200" height="200"><path d="M136.4224 547.3024c0-75.264 32.96-144.9088 86.4-198.8352-7.9616-87.616 1.1264-139.3024 27.2768-155.0208 27.2896-16.8576 73.8944 3.3664 138.7008 60.672a439.68 439.68 0 0 1 117.0816-15.744c38.656 0 76.1728 4.5056 111.4112 14.6048 68.2112-60.6592 115.968-81.9968 144.384-65.152 27.2768 16.8576 35.2384 69.6576 26.1376 159.5136 54.5792 53.9264 87.5392 123.5712 87.5392 199.9616 0 98.8544-55.7056 186.4832-140.9664 242.6496a440.32 440.32 0 0 1 128.4608 85.376c98.9056-92.1216 160.2944-222.4256 160.2944-367.3344C1023.1424 228.2624 794.624 2.4704 511.5648 2.4704 228.5056 2.4704 0 228.2624 0 507.9936c0 144.896 61.3888 275.2128 160.2944 367.3216a480.128 480.128 0 0 1 121.6384-81.9968c-88.6784-56.1664-145.5104-146.048-145.5104-246.016" fill="#F4F6F9" p-id="13442"></path><path d="M721.8816 332.736c-21.6064-17.9712-47.744-31.4496-75.0336-42.688-2.2656-2.24-4.544-4.48-5.6832-6.7328-11.3664-28.0832 77.312-83.136 112.5504-65.152 22.7328 11.2256 23.872 104.4736 1.1264 126.9376-5.6832 2.24-11.3664 2.24-19.328 1.1264l-13.632-13.4912zM394.4832 770.8544c-13.6448-4.5056-26.1504-10.112-38.656-15.744 10.2272-6.7328 19.328-16.832 27.2768-31.4368 3.4176-6.7456 6.8224-13.4784 9.088-21.3504 1.152 7.872 1.152 16.8576 2.2912 24.7168v43.8144z m-115.968-430.2464c-4.544 1.1136-7.9488 3.3664-11.3664 5.6192-4.544 0-9.088 0-12.4928-2.2528-22.7456-22.464-20.48-106.7136 11.3536-123.5712 31.8336-16.8448 113.6896 33.7024 102.3232 61.7856-7.9616 11.2384-44.3392 42.688-76.16 57.2928-5.696-1.1264-11.3792 0-13.6576 1.1264z m596.8384 206.6944c0-76.3904-32.9728-146.048-87.5392-199.9616 9.088-89.856 0-143.7824-26.1504-159.5136-27.2768-16.8448-76.16 4.4928-144.3712 65.152-35.2384-8.9856-72.7552-14.592-111.4112-14.592a446.08 446.08 0 0 0-117.0816 15.7184c-65.9456-57.2928-112.5504-77.504-138.7008-60.6592-26.1504 15.7312-35.2384 67.4048-27.2896 155.0208-54.5664 53.9264-86.4 123.5712-86.4 198.8352 0 99.9808 56.8448 189.8496 145.5232 246.016-46.6176 21.3376-87.5392 49.4336-121.6384 81.9968 59.1104 56.1792 132.992 97.7408 213.7216 120.2048 31.8336-64.0256 80.7168-105.6 137.5616-105.6 56.832 0 105.7152 41.5744 137.5488 104.4736 81.8432-22.464 154.5984-64.0256 213.7216-120.192-36.3776-33.7024-79.5776-62.912-128.4608-85.376 85.2608-55.04 140.9664-142.6688 140.9664-241.5232z" fill="#4FD1CF" p-id="13443"></path><path d="M613.888 687.7184c-12.5056 0-22.7456-14.592-22.7456-33.7024 0-19.0848 10.24-33.7024 22.7456-33.7024 12.4928 0 22.7328 14.6176 22.7328 33.7024 0 19.0976-10.24 33.7024-22.7328 33.7024m-204.6336 0c-12.5056 0-22.7328-14.592-22.7328-33.7024 0-19.0848 10.24-33.7024 22.7328-33.7024 12.5056 0 22.7328 14.6176 22.7328 33.7024 0 19.0976-10.24 33.7024-22.7328 33.7024m341.0432-101.0944c-23.872 7.8592-31.8208-64.0384-52.288-61.7856-19.328 1.1264-27.2896 65.152-38.656 65.152-22.7328 0-45.4656-37.0688-68.2112-48.3072-94.3488-46.0544-27.2768 33.7024-56.832 33.7024-26.1504 0-170.5344-56.1664-181.888-33.7024-2.2784 5.6192 0 11.2384-11.3792 22.464-11.3664 11.2384-34.0992-56.1536-45.4656-33.6896-10.24 51.6736 5.6832 107.84 2.2656 188.7232 52.3008 42.6752 126.1952 69.632 208.0384 69.632 110.272 0 205.7728-48.2944 254.656-120.192-5.696-60.6592 22.7328-114.5856-10.24-81.9968" fill="#F4F6F9" p-id="13444"></path><path d="M591.1424 654.0288c0 18.6112 10.176 33.6896 22.7456 33.6896 12.544 0 22.7328-15.0784 22.7328-33.6896 0-18.624-10.176-33.7152-22.7328-33.7152-12.5696 0-22.7456 15.104-22.7456 33.7152M386.5216 654.0288c0 12.032 4.3264 23.168 11.3664 29.184 7.04 6.016 15.6928 6.016 22.7328 0s11.3664-17.152 11.3664-29.184c0-18.624-10.176-33.7152-22.7328-33.7152s-22.7328 15.104-22.7328 33.7152" fill="#b1f4f4" p-id="13445"></path><path d="M734.3872 347.3408c7.9616 2.2528 15.9104 2.2528 21.5936-1.1136 22.7456-22.4768 21.6064-115.712-1.1392-126.9504-35.2384-17.9712-123.904 37.0816-112.5376 65.152 7.9616 11.2384 43.2 42.7008 75.0336 57.3056 3.4048 1.1136 7.9616 2.24 11.3664 3.3664 1.1392 0 3.4048 1.1264 5.6832 2.24m-367.1936-66.2784c11.3664-28.0832-70.4896-78.6304-102.3104-61.7856-31.8336 16.8576-34.112 101.12-11.3664 123.5712 29.5552 14.6048 102.3104-44.928 113.664-61.7856M795.776 558.5408c0 39.3088-12.5056 77.504-35.2384 110.08-6.8224-60.6592 22.7328-114.5728-10.24-81.9968-23.872 7.8592-31.8208-64.0384-52.288-61.7856-19.328 1.1264-27.2896 65.152-38.656 65.152-22.7328 0-45.4656-37.0688-68.2112-48.3072-94.3488-46.0544-27.2768 33.7024-56.832 33.7024-26.1504 0-170.5344-56.1664-181.888-33.7024-2.2784 5.6192 0 11.2384-11.3792 22.464-11.3664 11.2384-34.0992-56.1536-45.4656-33.6896-10.24 51.6736 5.6832 107.84 2.2656 188.7232-51.1488-41.5744-81.8432-97.7408-81.8432-160.64 0-126.9504 129.5872-230.2848 289.8816-230.2848 160.2944 0 289.8944 103.3344 289.8944 230.272" fill="#b1f4f4" p-id="13446"></path><path d="M649.1264 994.3936c-44.3392 12.3648-89.8176 19.0976-137.5488 19.0976-47.744 0-93.2224-6.7328-137.5616-19.0976 31.8208-62.8992 80.7168-104.4736 137.5616-104.4736 56.832 0 105.7152 41.5744 137.5488 104.4736m84.1216-647.04c-5.6832-1.1392-11.3664-3.3792-17.0496-5.632 3.4048 1.1264 7.9616 2.2528 11.3664 3.3792 2.2784 0 4.544 1.1136 5.6832 2.24" fill="#b1f4f4" p-id="13447"></path></svg>